<svg width="166" height="33" viewBox="0 0 166 33" fill="none" xmlns="http://www.w3.org/2000/svg">
<path d="M82.4919 22.5399H75.8295L74.3653 27.4892H70.7339L77.6599 6.16943H80.7495L87.5437 27.4892H83.9269L82.4919 22.5399ZM76.7227 19.5382H81.6134L79.1973 11.1772L76.7227 19.5382Z" fill="black"/>
<path d="M90.1501 27.4892V6.16943H96.9589C97.9839 6.1792 98.9405 6.29634 99.8289 6.52086C100.727 6.74538 101.508 7.09192 102.172 7.56049C102.845 8.02905 103.372 8.6294 103.753 9.36154C104.134 10.0839 104.319 10.9429 104.31 11.9386C104.3 12.9929 104.007 13.8959 103.431 14.6475C102.855 15.3894 102.079 15.9654 101.103 16.3754C101.698 16.5413 102.225 16.7805 102.684 17.0929C103.153 17.3955 103.543 17.7615 103.856 18.1911C104.168 18.6206 104.407 19.0989 104.573 19.626C104.739 20.1434 104.822 20.695 104.822 21.2807C104.822 22.2959 104.637 23.1891 104.266 23.9603C103.895 24.7315 103.377 25.3757 102.713 25.8931C102.059 26.4105 101.278 26.8058 100.371 27.0792C99.4726 27.3427 98.5013 27.4794 97.4568 27.4892H90.1501ZM93.6789 17.825V24.6192H97.5153C98.0717 24.6094 98.5794 24.5265 99.0382 24.3703C99.497 24.2043 99.8923 23.9798 100.224 23.6967C100.556 23.4136 100.815 23.0671 101 22.6571C101.196 22.2471 101.293 21.7883 101.293 21.2807C101.293 20.7438 101.21 20.2654 101.044 19.8457C100.878 19.4162 100.639 19.055 100.327 18.7621C100.014 18.4693 99.6336 18.2448 99.1846 18.0886C98.7355 17.9226 98.2328 17.8348 97.6764 17.825H93.6789ZM93.6789 15.1454H97.0468C97.5739 15.1356 98.062 15.0673 98.511 14.9404C98.9698 14.8037 99.3652 14.6085 99.6971 14.3547C100.029 14.0911 100.293 13.7739 100.488 13.4029C100.683 13.0222 100.781 12.5878 100.781 12.0997C100.781 11.5628 100.688 11.104 100.502 10.7233C100.317 10.3426 100.053 10.0302 99.7117 9.78617C99.3798 9.54213 98.9845 9.36642 98.5257 9.25904C98.0669 9.1419 97.5641 9.07844 97.0175 9.06868H93.6789V15.1454Z" fill="black"/>
<path d="M119.612 24.6192H130.374V27.4892H115.483L115.468 25.117L125.894 9.06868H115.556V6.16943H130.038L130.052 8.48298L119.612 24.6192Z" fill="black"/>
<path d="M146.686 17.9275H137.915V24.6192H148.18V27.4892H134.387V6.16943H148.077V9.06868H137.915V15.0868H146.686V17.9275Z" fill="black"/>
<path d="M166 27.4892H162.457L155.516 12.8172L155.501 27.4892H151.943V6.16943H155.501L162.413 20.7975L162.442 6.16943H166V27.4892Z" fill="black"/>
<circle cx="16.2436" cy="16.2436" r="16.2436" fill="#F8647C"/>
<circle cx="36.2358" cy="16.2436" r="16.2436" fill="#2AB87A"/>
<path fill-rule="evenodd" clip-rule="evenodd" d="M26.2475 29.048C30.0504 26.075 32.495 21.4447 32.495 16.2435C32.495 11.0423 30.0504 6.41198 26.2475 3.43896C22.4446 6.41198 20 11.0423 20 16.2435C20 21.4447 22.4446 26.075 26.2475 29.048Z" fill="#29483B"/>
</svg>
